solid OpenSCAD_Model
  facet normal -1 0 0
    outer loop
      vertex 0 50 0
      vertex 0 3 12
      vertex 0 50 12
    endloop
  endfacet
  facet normal -1 0 0
    outer loop
      vertex 0 0 30
      vertex 0 3 12
      vertex 0 0 3
    endloop
  endfacet
  facet normal -1 0 0
    outer loop
      vertex 0 50 0
      vertex 0 0 3
      vertex 0 3 12
    endloop
  endfacet
  facet normal -1 0 0
    outer loop
      vertex 0 -11 0
      vertex 0 0 3
      vertex 0 50 0
    endloop
  endfacet
  facet normal -1 -0 0
    outer loop
      vertex 0 0 3
      vertex 0 -11 0
      vertex 0 -8 3
    endloop
  endfacet
  facet normal -1 0 0
    outer loop
      vertex 0 -11 30
      vertex 0 -8 3
      vertex 0 -11 0
    endloop
  endfacet
  facet normal -1 0 0
    outer loop
      vertex 0 -8 3
      vertex 0 -11 30
      vertex 0 -8 30
    endloop
  endfacet
  facet normal -1 0 0
    outer loop
      vertex 0 3 12
      vertex 0 0 30
      vertex 0 3 30
    endloop
  endfacet
  facet normal 0 0 1
    outer loop
      vertex 48 50 12
      vertex 45 47 12
      vertex 48 3 12
    endloop
  endfacet
  facet normal 0 0 1
    outer loop
      vertex 48 50 12
      vertex 3 47 12
      vertex 45 47 12
    endloop
  endfacet
  facet normal -0 0 1
    outer loop
      vertex 0 50 12
      vertex 3 47 12
      vertex 48 50 12
    endloop
  endfacet
  facet normal 0 0 1
    outer loop
      vertex 0 3 12
      vertex 3 47 12
      vertex 0 50 12
    endloop
  endfacet
  facet normal 0 0 1
    outer loop
      vertex 3 47 12
      vertex 0 3 12
      vertex 3 3 12
    endloop
  endfacet
  facet normal 0 0 1
    outer loop
      vertex 48 3 12
      vertex 45 47 12
      vertex 45 3 12
    endloop
  endfacet
  facet normal 1 0 0
    outer loop
      vertex 48 -8 30
      vertex 48 -11 30
      vertex 48 -8 3
    endloop
  endfacet
  facet normal 1 0 0
    outer loop
      vertex 48 3 30
      vertex 48 0 30
      vertex 48 3 12
    endloop
  endfacet
  facet normal 1 -0 0
    outer loop
      vertex 48 3 12
      vertex 48 50 0
      vertex 48 50 12
    endloop
  endfacet
  facet normal 1 0 0
    outer loop
      vertex 48 0 3
      vertex 48 3 12
      vertex 48 0 30
    endloop
  endfacet
  facet normal 1 -0 0
    outer loop
      vertex 48 0 3
      vertex 48 50 0
      vertex 48 3 12
    endloop
  endfacet
  facet normal 1 0 0
    outer loop
      vertex 48 -11 0
      vertex 48 0 3
      vertex 48 -8 3
    endloop
  endfacet
  facet normal 1 0 0
    outer loop
      vertex 48 0 3
      vertex 48 -11 0
      vertex 48 50 0
    endloop
  endfacet
  facet normal 1 0 0
    outer loop
      vertex 48 -11 0
      vertex 48 -8 3
      vertex 48 -11 30
    endloop
  endfacet
  facet normal -0 0 -1
    outer loop
      vertex 13.3692 20.1975 0
      vertex 8.24515 11.266 0
      vertex 12.6263 22.484 0
    endloop
  endfacet
  facet normal 0 0 -1
    outer loop
      vertex 12.375 24.875 0
      vertex 9.83893 38.9111 0
      vertex 10.266 39.6507 0
    endloop
  endfacet
  facet normal 0 0 -1
    outer loop
      vertex 7.50548 10.8389 0
      vertex 12.6263 22.484 0
      vertex 8.24515 11.266 0
    endloop
  endfacet
  facet normal 0 0 -1
    outer loop
      vertex 12.375 24.875 0
      vertex 9.09926 38.484 0
      vertex 9.83893 38.9111 0
    endloop
  endfacet
  facet normal -0 0 -1
    outer loop
      vertex 12.6263 22.484 0
      vertex 7.50548 10.8389 0
      vertex 12.375 24.875 0
    endloop
  endfacet
  facet normal 0 0 -1
    outer loop
      vertex 12.375 24.875 0
      vertex 8.24515 38.484 0
      vertex 9.09926 38.484 0
    endloop
  endfacet
  facet normal 0 0 -1
    outer loop
      vertex 7.50548 38.9111 0
      vertex 12.375 24.875 0
      vertex 7.50548 10.8389 0
    endloop
  endfacet
  facet normal 0 0 -1
    outer loop
      vertex 12.375 24.875 0
      vertex 7.50548 38.9111 0
      vertex 8.24515 38.484 0
    endloop
  endfacet
  facet normal 0 0 -1
    outer loop
      vertex 7.07843 10.0993 0
      vertex 7.50548 38.9111 0
      vertex 7.50548 10.8389 0
    endloop
  endfacet
  facet normal -0 0 -1
    outer loop
      vertex 7.50548 38.9111 0
      vertex 7.07843 10.0993 0
      vertex 7.07843 39.6507 0
    endloop
  endfacet
  facet normal 0 0 -1
    outer loop
      vertex 40.2445 10.8389 0
      vertex 40.6716 39.6507 0
      vertex 40.6716 10.0993 0
    endloop
  endfacet
  facet normal 0 0 -1
    outer loop
      vertex 40.2445 10.8389 0
      vertex 40.2445 38.9111 0
      vertex 40.6716 39.6507 0
    endloop
  endfacet
  facet normal 0 0 -1
    outer loop
      vertex 35.1237 22.484 0
      vertex 40.2445 10.8389 0
      vertex 39.5048 11.266 0
    endloop
  endfacet
  facet normal 0 0 -1
    outer loop
      vertex 40.2445 10.8389 0
      vertex 35.375 24.875 0
      vertex 40.2445 38.9111 0
    endloop
  endfacet
  facet normal 0 0 -1
    outer loop
      vertex 34.3808 20.1975 0
      vertex 39.5048 11.266 0
      vertex 38.6507 11.266 0
    endloop
  endfacet
  facet normal 0 0 -1
    outer loop
      vertex 35.1237 27.266 0
      vertex 40.2445 38.9111 0
      vertex 35.375 24.875 0
    endloop
  endfacet
  facet normal 0 0 -1
    outer loop
      vertex 33.1787 18.1155 0
      vertex 38.6507 11.266 0
      vertex 37.9111 10.8389 0
    endloop
  endfacet
  facet normal 0 0 -1
    outer loop
      vertex 40.2445 38.9111 0
      vertex 35.1237 27.266 0
      vertex 39.5048 38.484 0
    endloop
  endfacet
  facet normal 0 0 -1
    outer loop
      vertex 31.57 16.3288 0
      vertex 37.9111 10.8389 0
      vertex 37.484 10.0993 0
    endloop
  endfacet
  facet normal 0 0 -1
    outer loop
      vertex 34.3808 29.5525 0
      vertex 39.5048 38.484 0
      vertex 35.1237 27.266 0
    endloop
  endfacet
  facet normal 0 0 -1
    outer loop
      vertex 40.6716 10.0993 0
      vertex 48 -11 0
      vertex 40.6716 9.24515 0
    endloop
  endfacet
  facet normal 0 0 -1
    outer loop
      vertex 48 -11 0
      vertex 40.2445 8.50548 0
      vertex 40.6716 9.24515 0
    endloop
  endfacet
  facet normal 0 0 -1
    outer loop
      vertex 48 -11 0
      vertex 39.5048 8.07843 0
      vertex 40.2445 8.50548 0
    endloop
  endfacet
  facet normal 0 0 -1
    outer loop
      vertex 48 -11 0
      vertex 38.6507 8.07843 0
      vertex 39.5048 8.07843 0
    endloop
  endfacet
  facet normal 0 0 -1
    outer loop
      vertex 48 -11 0
      vertex 37.9111 8.50548 0
      vertex 38.6507 8.07843 0
    endloop
  endfacet
  facet normal 0 0 -1
    outer loop
      vertex 0 -11 0
      vertex 37.9111 8.50548 0
      vertex 48 -11 0
    endloop
  endfacet
  facet normal 0 0 -1
    outer loop
      vertex 29.625 14.9157 0
      vertex 37.484 10.0993 0
      vertex 37.484 9.24515 0
    endloop
  endfacet
  facet normal -0 0 -1
    outer loop
      vertex 39.5048 38.484 0
      vertex 34.3808 29.5525 0
      vertex 38.6507 38.484 0
    endloop
  endfacet
  facet normal 0 0 -1
    outer loop
      vertex 33.1787 31.6345 0
      vertex 38.6507 38.484 0
      vertex 34.3808 29.5525 0
    endloop
  endfacet
  facet normal 0 0 -1
    outer loop
      vertex 40.2445 10.8389 0
      vertex 35.1237 22.484 0
      vertex 35.375 24.875 0
    endloop
  endfacet
  facet normal 0 0 -1
    outer loop
      vertex 39.5048 11.266 0
      vertex 34.3808 20.1975 0
      vertex 35.1237 22.484 0
    endloop
  endfacet
  facet normal 0 0 -1
    outer loop
      vertex 38.6507 11.266 0
      vertex 33.1787 18.1155 0
      vertex 34.3808 20.1975 0
    endloop
  endfacet
  facet normal 0 0 -1
    outer loop
      vertex 37.9111 10.8389 0
      vertex 31.57 16.3288 0
      vertex 33.1787 18.1155 0
    endloop
  endfacet
  facet normal 0 -0 -1
    outer loop
      vertex 25.0771 13.438 0
      vertex 37.9111 8.50548 0
      vertex 9.83893 8.50548 0
    endloop
  endfacet
  facet normal 0 0 -1
    outer loop
      vertex 37.484 10.0993 0
      vertex 29.625 14.9157 0
      vertex 31.57 16.3288 0
    endloop
  endfacet
  facet normal 0 0 -1
    outer loop
      vertex 37.484 9.24515 0
      vertex 27.4287 13.9379 0
      vertex 29.625 14.9157 0
    endloop
  endfacet
  facet normal 0 0 -1
    outer loop
      vertex 37.9111 8.50548 0
      vertex 27.4287 13.9379 0
      vertex 37.484 9.24515 0
    endloop
  endfacet
  facet normal 0 -0 -1
    outer loop
      vertex 27.4287 13.9379 0
      vertex 37.9111 8.50548 0
      vertex 25.0771 13.438 0
    endloop
  endfacet
  facet normal -0 0 -1
    outer loop
      vertex 25.0771 13.438 0
      vertex 9.83893 8.50548 0
      vertex 22.6729 13.438 0
    endloop
  endfacet
  facet normal -0 0 -1
    outer loop
      vertex 22.6729 13.438 0
      vertex 9.83893 8.50548 0
      vertex 20.3213 13.9379 0
    endloop
  endfacet
  facet normal 0 -0 -1
    outer loop
      vertex 10.266 9.24515 0
      vertex 20.3213 13.9379 0
      vertex 9.83893 8.50548 0
    endloop
  endfacet
  facet normal 0 0 -1
    outer loop
      vertex 9.09926 11.266 0
      vertex 14.5713 18.1155 0
      vertex 9.83893 10.8389 0
    endloop
  endfacet
  facet normal -0 0 -1
    outer loop
      vertex 16.18 16.3288 0
      vertex 9.83893 10.8389 0
      vertex 14.5713 18.1155 0
    endloop
  endfacet
  facet normal 0 0 -1
    outer loop
      vertex 9.83893 10.8389 0
      vertex 16.18 16.3288 0
      vertex 10.266 10.0993 0
    endloop
  endfacet
  facet normal -0 0 -1
    outer loop
      vertex 18.125 14.9157 0
      vertex 10.266 10.0993 0
      vertex 16.18 16.3288 0
    endloop
  endfacet
  facet normal 0 0 -1
    outer loop
      vertex 10.266 10.0993 0
      vertex 18.125 14.9157 0
      vertex 10.266 9.24515 0
    endloop
  endfacet
  facet normal -0 0 -1
    outer loop
      vertex 20.3213 13.9379 0
      vertex 10.266 9.24515 0
      vertex 18.125 14.9157 0
    endloop
  endfacet
  facet normal -0 0 -1
    outer loop
      vertex 37.9111 8.50548 0
      vertex 0 -11 0
      vertex 9.83893 8.50548 0
    endloop
  endfacet
  facet normal 0 0 -1
    outer loop
      vertex 9.83893 8.50548 0
      vertex 0 -11 0
      vertex 9.09926 8.07843 0
    endloop
  endfacet
  facet normal 0 0 -1
    outer loop
      vertex 0 -11 0
      vertex 7.07843 10.0993 0
      vertex 7.07843 9.24515 0
    endloop
  endfacet
  facet normal 0 0 -1
    outer loop
      vertex 7.07843 10.0993 0
      vertex 0 50 0
      vertex 7.07843 39.6507 0
    endloop
  endfacet
  facet normal -0 0 -1
    outer loop
      vertex 7.07843 10.0993 0
      vertex 0 -11 0
      vertex 0 50 0
    endloop
  endfacet
  facet normal -0 0 -1
    outer loop
      vertex 7.50548 8.50548 0
      vertex 0 -11 0
      vertex 7.07843 9.24515 0
    endloop
  endfacet
  facet normal -0 0 -1
    outer loop
      vertex 8.24515 8.07843 0
      vertex 0 -11 0
      vertex 7.50548 8.50548 0
    endloop
  endfacet
  facet normal -0 0 -1
    outer loop
      vertex 9.09926 8.07843 0
      vertex 0 -11 0
      vertex 8.24515 8.07843 0
    endloop
  endfacet
  facet normal 0 0 -1
    outer loop
      vertex 48 -11 0
      vertex 40.6716 10.0993 0
      vertex 48 50 0
    endloop
  endfacet
  facet normal 0 0 -1
    outer loop
      vertex 40.6716 39.6507 0
      vertex 48 50 0
      vertex 40.6716 10.0993 0
    endloop
  endfacet
  facet normal 0 0 -1
    outer loop
      vertex 40.6716 40.5048 0
      vertex 48 50 0
      vertex 40.6716 39.6507 0
    endloop
  endfacet
  facet normal 0 0 -1
    outer loop
      vertex 40.2445 41.2445 0
      vertex 48 50 0
      vertex 40.6716 40.5048 0
    endloop
  endfacet
  facet normal 0 0 -1
    outer loop
      vertex 39.5048 41.6716 0
      vertex 48 50 0
      vertex 40.2445 41.2445 0
    endloop
  endfacet
  facet normal 0 0 -1
    outer loop
      vertex 38.6507 41.6716 0
      vertex 48 50 0
      vertex 39.5048 41.6716 0
    endloop
  endfacet
  facet normal 0 0 -1
    outer loop
      vertex 0 50 0
      vertex 38.6507 41.6716 0
      vertex 37.9111 41.2445 0
    endloop
  endfacet
  facet normal -0 0 -1
    outer loop
      vertex 38.6507 38.484 0
      vertex 33.1787 31.6345 0
      vertex 37.9111 38.9111 0
    endloop
  endfacet
  facet normal 0 0 -1
    outer loop
      vertex 31.57 33.4212 0
      vertex 37.9111 38.9111 0
      vertex 33.1787 31.6345 0
    endloop
  endfacet
  facet normal -0 0 -1
    outer loop
      vertex 37.9111 38.9111 0
      vertex 31.57 33.4212 0
      vertex 37.484 39.6507 0
    endloop
  endfacet
  facet normal 0 0 -1
    outer loop
      vertex 29.625 34.8343 0
      vertex 37.484 39.6507 0
      vertex 31.57 33.4212 0
    endloop
  endfacet
  facet normal -0 0 -1
    outer loop
      vertex 37.484 39.6507 0
      vertex 29.625 34.8343 0
      vertex 37.484 40.5048 0
    endloop
  endfacet
  facet normal 0 0 -1
    outer loop
      vertex 27.4287 35.8121 0
      vertex 37.484 40.5048 0
      vertex 29.625 34.8343 0
    endloop
  endfacet
  facet normal -0 0 -1
    outer loop
      vertex 37.484 40.5048 0
      vertex 27.4287 35.8121 0
      vertex 37.9111 41.2445 0
    endloop
  endfacet
  facet normal 0 0 -1
    outer loop
      vertex 25.0771 36.312 0
      vertex 37.9111 41.2445 0
      vertex 27.4287 35.8121 0
    endloop
  endfacet
  facet normal 0 0 -1
    outer loop
      vertex 9.83893 41.2445 0
      vertex 37.9111 41.2445 0
      vertex 25.0771 36.312 0
    endloop
  endfacet
  facet normal 0 0 -1
    outer loop
      vertex 9.83893 41.2445 0
      vertex 25.0771 36.312 0
      vertex 22.6729 36.312 0
    endloop
  endfacet
  facet normal 0 0 -1
    outer loop
      vertex 9.83893 41.2445 0
      vertex 22.6729 36.312 0
      vertex 20.3213 35.8121 0
    endloop
  endfacet
  facet normal 0 0 -1
    outer loop
      vertex 10.266 40.5048 0
      vertex 20.3213 35.8121 0
      vertex 18.125 34.8343 0
    endloop
  endfacet
  facet normal -0 0 -1
    outer loop
      vertex 14.5713 18.1155 0
      vertex 9.09926 11.266 0
      vertex 13.3692 20.1975 0
    endloop
  endfacet
  facet normal 0 0 -1
    outer loop
      vertex 8.24515 11.266 0
      vertex 13.3692 20.1975 0
      vertex 9.09926 11.266 0
    endloop
  endfacet
  facet normal 0 0 -1
    outer loop
      vertex 12.375 24.875 0
      vertex 10.266 39.6507 0
      vertex 12.6263 27.266 0
    endloop
  endfacet
  facet normal 0 0 -1
    outer loop
      vertex 10.266 39.6507 0
      vertex 13.3692 29.5525 0
      vertex 12.6263 27.266 0
    endloop
  endfacet
  facet normal 0 0 -1
    outer loop
      vertex 10.266 39.6507 0
      vertex 14.5713 31.6345 0
      vertex 13.3692 29.5525 0
    endloop
  endfacet
  facet normal 0 0 -1
    outer loop
      vertex 10.266 39.6507 0
      vertex 16.18 33.4212 0
      vertex 14.5713 31.6345 0
    endloop
  endfacet
  facet normal 0 0 -1
    outer loop
      vertex 10.266 39.6507 0
      vertex 18.125 34.8343 0
      vertex 16.18 33.4212 0
    endloop
  endfacet
  facet normal 0 0 -1
    outer loop
      vertex 10.266 40.5048 0
      vertex 18.125 34.8343 0
      vertex 10.266 39.6507 0
    endloop
  endfacet
  facet normal 0 0 -1
    outer loop
      vertex 20.3213 35.8121 0
      vertex 10.266 40.5048 0
      vertex 9.83893 41.2445 0
    endloop
  endfacet
  facet normal 0 0 -1
    outer loop
      vertex 9.09926 41.6716 0
      vertex 37.9111 41.2445 0
      vertex 9.83893 41.2445 0
    endloop
  endfacet
  facet normal 0 0 -1
    outer loop
      vertex 0 50 0
      vertex 37.9111 41.2445 0
      vertex 9.09926 41.6716 0
    endloop
  endfacet
  facet normal 0 0 -1
    outer loop
      vertex 0 50 0
      vertex 9.09926 41.6716 0
      vertex 8.24515 41.6716 0
    endloop
  endfacet
  facet normal 0 0 -1
    outer loop
      vertex 38.6507 41.6716 0
      vertex 0 50 0
      vertex 48 50 0
    endloop
  endfacet
  facet normal 0 0 -1
    outer loop
      vertex 7.50548 41.2445 0
      vertex 0 50 0
      vertex 8.24515 41.6716 0
    endloop
  endfacet
  facet normal 0 0 -1
    outer loop
      vertex 7.07843 40.5048 0
      vertex 0 50 0
      vertex 7.50548 41.2445 0
    endloop
  endfacet
  facet normal 0 0 -1
    outer loop
      vertex 7.07843 39.6507 0
      vertex 0 50 0
      vertex 7.07843 40.5048 0
    endloop
  endfacet
  facet normal 0 -1 0
    outer loop
      vertex 0 0 3
      vertex 48 0 30
      vertex 0 0 30
    endloop
  endfacet
  facet normal 0 -1 -0
    outer loop
      vertex 48 0 30
      vertex 0 0 3
      vertex 48 0 3
    endloop
  endfacet
  facet normal 0 1 -0
    outer loop
      vertex 48 50 0
      vertex 0 50 12
      vertex 48 50 12
    endloop
  endfacet
  facet normal 0 1 0
    outer loop
      vertex 0 50 12
      vertex 48 50 0
      vertex 0 50 0
    endloop
  endfacet
  facet normal 1 -0 0
    outer loop
      vertex 3 3 12
      vertex 3 47 3
      vertex 3 47 12
    endloop
  endfacet
  facet normal 1 0 0
    outer loop
      vertex 3 47 3
      vertex 3 3 12
      vertex 3 3 3
    endloop
  endfacet
  facet normal -1 0 0
    outer loop
      vertex 45 3 3
      vertex 45 47 12
      vertex 45 47 3
    endloop
  endfacet
  facet normal -1 -0 0
    outer loop
      vertex 45 47 12
      vertex 45 3 3
      vertex 45 3 12
    endloop
  endfacet
  facet normal 0 1 -0
    outer loop
      vertex 45 3 3
      vertex 3 3 12
      vertex 45 3 12
    endloop
  endfacet
  facet normal 0 1 0
    outer loop
      vertex 3 3 12
      vertex 45 3 3
      vertex 3 3 3
    endloop
  endfacet
  facet normal 0 1 0
    outer loop
      vertex 45 3 12
      vertex 48 3 30
      vertex 48 3 12
    endloop
  endfacet
  facet normal 0 1 0
    outer loop
      vertex 48 3 30
      vertex 45 3 12
      vertex 0 3 30
    endloop
  endfacet
  facet normal 0 1 -0
    outer loop
      vertex 3 3 12
      vertex 0 3 30
      vertex 45 3 12
    endloop
  endfacet
  facet normal 0 1 0
    outer loop
      vertex 0 3 30
      vertex 3 3 12
      vertex 0 3 12
    endloop
  endfacet
  facet normal 0 -1 0
    outer loop
      vertex 3 47 3
      vertex 45 47 12
      vertex 3 47 12
    endloop
  endfacet
  facet normal 0 -1 -0
    outer loop
      vertex 45 47 12
      vertex 3 47 3
      vertex 45 47 3
    endloop
  endfacet
  facet normal -0.499999 -0.866026 0
    outer loop
      vertex 39.5048 41.6716 0
      vertex 40.2445 41.2445 3
      vertex 39.5048 41.6716 3
    endloop
  endfacet
  facet normal -0.499999 -0.866026 -0
    outer loop
      vertex 40.2445 41.2445 3
      vertex 39.5048 41.6716 0
      vertex 40.2445 41.2445 0
    endloop
  endfacet
  facet normal 0.866026 -0.499999 0
    outer loop
      vertex 37.484 40.5048 3
      vertex 37.9111 41.2445 0
      vertex 37.9111 41.2445 3
    endloop
  endfacet
  facet normal 0.866026 -0.499999 0
    outer loop
      vertex 37.9111 41.2445 0
      vertex 37.484 40.5048 3
      vertex 37.484 40.5048 0
    endloop
  endfacet
  facet normal 0 -1 0
    outer loop
      vertex 38.6507 41.6716 0
      vertex 39.5048 41.6716 3
      vertex 38.6507 41.6716 3
    endloop
  endfacet
  facet normal 0 -1 -0
    outer loop
      vertex 39.5048 41.6716 3
      vertex 38.6507 41.6716 0
      vertex 39.5048 41.6716 0
    endloop
  endfacet
  facet normal 1 -0 0
    outer loop
      vertex 37.484 39.6507 3
      vertex 37.484 40.5048 0
      vertex 37.484 40.5048 3
    endloop
  endfacet
  facet normal 1 0 0
    outer loop
      vertex 37.484 40.5048 0
      vertex 37.484 39.6507 3
      vertex 37.484 39.6507 0
    endloop
  endfacet
  facet normal -0.866025 0.500001 0
    outer loop
      vertex 40.2445 38.9111 0
      vertex 40.6716 39.6507 3
      vertex 40.6716 39.6507 0
    endloop
  endfacet
  facet normal -0.866025 0.500001 0
    outer loop
      vertex 40.6716 39.6507 3
      vertex 40.2445 38.9111 0
      vertex 40.2445 38.9111 3
    endloop
  endfacet
  facet normal -1 0 0
    outer loop
      vertex 40.6716 39.6507 0
      vertex 40.6716 40.5048 3
      vertex 40.6716 40.5048 0
    endloop
  endfacet
  facet normal -1 -0 0
    outer loop
      vertex 40.6716 40.5048 3
      vertex 40.6716 39.6507 0
      vertex 40.6716 39.6507 3
    endloop
  endfacet
  facet normal 0.500001 -0.866025 0
    outer loop
      vertex 37.9111 41.2445 0
      vertex 38.6507 41.6716 3
      vertex 37.9111 41.2445 3
    endloop
  endfacet
  facet normal 0.500001 -0.866025 0
    outer loop
      vertex 38.6507 41.6716 3
      vertex 37.9111 41.2445 0
      vertex 38.6507 41.6716 0
    endloop
  endfacet
  facet normal 0.866025 0.500001 0
    outer loop
      vertex 37.9111 38.9111 3
      vertex 37.484 39.6507 0
      vertex 37.484 39.6507 3
    endloop
  endfacet
  facet normal 0.866025 0.500001 0
    outer loop
      vertex 37.484 39.6507 0
      vertex 37.9111 38.9111 3
      vertex 37.9111 38.9111 0
    endloop
  endfacet
  facet normal -0.866026 -0.499999 0
    outer loop
      vertex 40.6716 40.5048 0
      vertex 40.2445 41.2445 3
      vertex 40.2445 41.2445 0
    endloop
  endfacet
  facet normal -0.866026 -0.499999 0
    outer loop
      vertex 40.2445 41.2445 3
      vertex 40.6716 40.5048 0
      vertex 40.6716 40.5048 3
    endloop
  endfacet
  facet normal -0.499999 0.866026 0
    outer loop
      vertex 40.2445 38.9111 0
      vertex 39.5048 38.484 3
      vertex 40.2445 38.9111 3
    endloop
  endfacet
  facet normal -0.499999 0.866026 0
    outer loop
      vertex 39.5048 38.484 3
      vertex 40.2445 38.9111 0
      vertex 39.5048 38.484 0
    endloop
  endfacet
  facet normal 0 1 -0
    outer loop
      vertex 39.5048 38.484 0
      vertex 38.6507 38.484 3
      vertex 39.5048 38.484 3
    endloop
  endfacet
  facet normal 0 1 0
    outer loop
      vertex 38.6507 38.484 3
      vertex 39.5048 38.484 0
      vertex 38.6507 38.484 0
    endloop
  endfacet
  facet normal 0.500001 0.866025 -0
    outer loop
      vertex 38.6507 38.484 0
      vertex 37.9111 38.9111 3
      vertex 38.6507 38.484 3
    endloop
  endfacet
  facet normal 0.500001 0.866025 0
    outer loop
      vertex 37.9111 38.9111 3
      vertex 38.6507 38.484 0
      vertex 37.9111 38.9111 0
    endloop
  endfacet
  facet normal 0.866026 -0.499999 0
    outer loop
      vertex 7.07843 40.5048 3
      vertex 7.50548 41.2445 0
      vertex 7.50548 41.2445 3
    endloop
  endfacet
  facet normal 0.866026 -0.499999 0
    outer loop
      vertex 7.50548 41.2445 0
      vertex 7.07843 40.5048 3
      vertex 7.07843 40.5048 0
    endloop
  endfacet
  facet normal 0.5 0.866025 -0
    outer loop
      vertex 8.24515 38.484 0
      vertex 7.50548 38.9111 3
      vertex 8.24515 38.484 3
    endloop
  endfacet
  facet normal 0.5 0.866025 0
    outer loop
      vertex 7.50548 38.9111 3
      vertex 8.24515 38.484 0
      vertex 7.50548 38.9111 0
    endloop
  endfacet
  facet normal 1 -0 0
    outer loop
      vertex 7.07843 39.6507 3
      vertex 7.07843 40.5048 0
      vertex 7.07843 40.5048 3
    endloop
  endfacet
  facet normal 1 0 0
    outer loop
      vertex 7.07843 40.5048 0
      vertex 7.07843 39.6507 3
      vertex 7.07843 39.6507 0
    endloop
  endfacet
  facet normal 0 1 -0
    outer loop
      vertex 9.09926 38.484 0
      vertex 8.24515 38.484 3
      vertex 9.09926 38.484 3
    endloop
  endfacet
  facet normal 0 1 0
    outer loop
      vertex 8.24515 38.484 3
      vertex 9.09926 38.484 0
      vertex 8.24515 38.484 0
    endloop
  endfacet
  facet normal -0.5 -0.866025 0
    outer loop
      vertex 9.09926 41.6716 0
      vertex 9.83893 41.2445 3
      vertex 9.09926 41.6716 3
    endloop
  endfacet
  facet normal -0.5 -0.866025 -0
    outer loop
      vertex 9.83893 41.2445 3
      vertex 9.09926 41.6716 0
      vertex 9.83893 41.2445 0
    endloop
  endfacet
  facet normal 0.866025 0.500001 0
    outer loop
      vertex 7.50548 38.9111 3
      vertex 7.07843 39.6507 0
      vertex 7.07843 39.6507 3
    endloop
  endfacet
  facet normal 0.866025 0.500001 0
    outer loop
      vertex 7.07843 39.6507 0
      vertex 7.50548 38.9111 3
      vertex 7.50548 38.9111 0
    endloop
  endfacet
  facet normal -0.5 0.866025 0
    outer loop
      vertex 9.83893 38.9111 0
      vertex 9.09926 38.484 3
      vertex 9.83893 38.9111 3
    endloop
  endfacet
  facet normal -0.5 0.866025 0
    outer loop
      vertex 9.09926 38.484 3
      vertex 9.83893 38.9111 0
      vertex 9.09926 38.484 0
    endloop
  endfacet
  facet normal 0.5 -0.866025 0
    outer loop
      vertex 7.50548 41.2445 0
      vertex 8.24515 41.6716 3
      vertex 7.50548 41.2445 3
    endloop
  endfacet
  facet normal 0.5 -0.866025 0
    outer loop
      vertex 8.24515 41.6716 3
      vertex 7.50548 41.2445 0
      vertex 8.24515 41.6716 0
    endloop
  endfacet
  facet normal 0 -1 0
    outer loop
      vertex 8.24515 41.6716 0
      vertex 9.09926 41.6716 3
      vertex 8.24515 41.6716 3
    endloop
  endfacet
  facet normal 0 -1 -0
    outer loop
      vertex 9.09926 41.6716 3
      vertex 8.24515 41.6716 0
      vertex 9.09926 41.6716 0
    endloop
  endfacet
  facet normal -0.866025 0.500001 0
    outer loop
      vertex 9.83893 38.9111 0
      vertex 10.266 39.6507 3
      vertex 10.266 39.6507 0
    endloop
  endfacet
  facet normal -0.866025 0.500001 0
    outer loop
      vertex 10.266 39.6507 3
      vertex 9.83893 38.9111 0
      vertex 9.83893 38.9111 3
    endloop
  endfacet
  facet normal -0.866026 -0.499999 0
    outer loop
      vertex 10.266 40.5048 0
      vertex 9.83893 41.2445 3
      vertex 9.83893 41.2445 0
    endloop
  endfacet
  facet normal -0.866026 -0.499999 0
    outer loop
      vertex 9.83893 41.2445 3
      vertex 10.266 40.5048 0
      vertex 10.266 40.5048 3
    endloop
  endfacet
  facet normal -1 0 0
    outer loop
      vertex 10.266 39.6507 0
      vertex 10.266 40.5048 3
      vertex 10.266 40.5048 0
    endloop
  endfacet
  facet normal -1 -0 0
    outer loop
      vertex 10.266 40.5048 3
      vertex 10.266 39.6507 0
      vertex 10.266 39.6507 3
    endloop
  endfacet
  facet normal 0.5 0.866025 -0
    outer loop
      vertex 8.24515 8.07843 0
      vertex 7.50548 8.50548 3
      vertex 8.24515 8.07843 3
    endloop
  endfacet
  facet normal 0.5 0.866025 0
    outer loop
      vertex 7.50548 8.50548 3
      vertex 8.24515 8.07843 0
      vertex 7.50548 8.50548 0
    endloop
  endfacet
  facet normal -0.866025 -0.5 0
    outer loop
      vertex 10.266 10.0993 0
      vertex 9.83893 10.8389 3
      vertex 9.83893 10.8389 0
    endloop
  endfacet
  facet normal -0.866025 -0.5 0
    outer loop
      vertex 9.83893 10.8389 3
      vertex 10.266 10.0993 0
      vertex 10.266 10.0993 3
    endloop
  endfacet
  facet normal 0 1 -0
    outer loop
      vertex 9.09926 8.07843 0
      vertex 8.24515 8.07843 3
      vertex 9.09926 8.07843 3
    endloop
  endfacet
  facet normal 0 1 0
    outer loop
      vertex 8.24515 8.07843 3
      vertex 9.09926 8.07843 0
      vertex 8.24515 8.07843 0
    endloop
  endfacet
  facet normal -1 0 0
    outer loop
      vertex 10.266 9.24515 0
      vertex 10.266 10.0993 3
      vertex 10.266 10.0993 0
    endloop
  endfacet
  facet normal -1 -0 0
    outer loop
      vertex 10.266 10.0993 3
      vertex 10.266 9.24515 0
      vertex 10.266 9.24515 3
    endloop
  endfacet
  facet normal 0.866025 -0.5 0
    outer loop
      vertex 7.07843 10.0993 3
      vertex 7.50548 10.8389 0
      vertex 7.50548 10.8389 3
    endloop
  endfacet
  facet normal 0.866025 -0.5 0
    outer loop
      vertex 7.50548 10.8389 0
      vertex 7.07843 10.0993 3
      vertex 7.07843 10.0993 0
    endloop
  endfacet
  facet normal -0.5 0.866025 0
    outer loop
      vertex 9.83893 8.50548 0
      vertex 9.09926 8.07843 3
      vertex 9.83893 8.50548 3
    endloop
  endfacet
  facet normal -0.5 0.866025 0
    outer loop
      vertex 9.09926 8.07843 3
      vertex 9.83893 8.50548 0
      vertex 9.09926 8.07843 0
    endloop
  endfacet
  facet normal 1 -0 0
    outer loop
      vertex 7.07843 9.24515 3
      vertex 7.07843 10.0993 0
      vertex 7.07843 10.0993 3
    endloop
  endfacet
  facet normal 1 0 0
    outer loop
      vertex 7.07843 10.0993 0
      vertex 7.07843 9.24515 3
      vertex 7.07843 9.24515 0
    endloop
  endfacet
  facet normal 0.866025 0.5 0
    outer loop
      vertex 7.50548 8.50548 3
      vertex 7.07843 9.24515 0
      vertex 7.07843 9.24515 3
    endloop
  endfacet
  facet normal 0.866025 0.5 0
    outer loop
      vertex 7.07843 9.24515 0
      vertex 7.50548 8.50548 3
      vertex 7.50548 8.50548 0
    endloop
  endfacet
  facet normal -0.866025 0.5 0
    outer loop
      vertex 9.83893 8.50548 0
      vertex 10.266 9.24515 3
      vertex 10.266 9.24515 0
    endloop
  endfacet
  facet normal -0.866025 0.5 0
    outer loop
      vertex 10.266 9.24515 3
      vertex 9.83893 8.50548 0
      vertex 9.83893 8.50548 3
    endloop
  endfacet
  facet normal 0.5 -0.866025 0
    outer loop
      vertex 7.50548 10.8389 0
      vertex 8.24515 11.266 3
      vertex 7.50548 10.8389 3
    endloop
  endfacet
  facet normal 0.5 -0.866025 0
    outer loop
      vertex 8.24515 11.266 3
      vertex 7.50548 10.8389 0
      vertex 8.24515 11.266 0
    endloop
  endfacet
  facet normal 0 -1 0
    outer loop
      vertex 8.24515 11.266 0
      vertex 9.09926 11.266 3
      vertex 8.24515 11.266 3
    endloop
  endfacet
  facet normal 0 -1 -0
    outer loop
      vertex 9.09926 11.266 3
      vertex 8.24515 11.266 0
      vertex 9.09926 11.266 0
    endloop
  endfacet
  facet normal -0.5 -0.866025 0
    outer loop
      vertex 9.09926 11.266 0
      vertex 9.83893 10.8389 3
      vertex 9.09926 11.266 3
    endloop
  endfacet
  facet normal -0.5 -0.866025 -0
    outer loop
      vertex 9.83893 10.8389 3
      vertex 9.09926 11.266 0
      vertex 9.83893 10.8389 0
    endloop
  endfacet
  facet normal -0.866025 0.5 0
    outer loop
      vertex 40.2445 8.50548 0
      vertex 40.6716 9.24515 3
      vertex 40.6716 9.24515 0
    endloop
  endfacet
  facet normal -0.866025 0.5 0
    outer loop
      vertex 40.6716 9.24515 3
      vertex 40.2445 8.50548 0
      vertex 40.2445 8.50548 3
    endloop
  endfacet
  facet normal 0.500001 -0.866025 0
    outer loop
      vertex 37.9111 10.8389 0
      vertex 38.6507 11.266 3
      vertex 37.9111 10.8389 3
    endloop
  endfacet
  facet normal 0.500001 -0.866025 0
    outer loop
      vertex 38.6507 11.266 3
      vertex 37.9111 10.8389 0
      vertex 38.6507 11.266 0
    endloop
  endfacet
  facet normal 0.866025 -0.5 0
    outer loop
      vertex 37.484 10.0993 3
      vertex 37.9111 10.8389 0
      vertex 37.9111 10.8389 3
    endloop
  endfacet
  facet normal 0.866025 -0.5 0
    outer loop
      vertex 37.9111 10.8389 0
      vertex 37.484 10.0993 3
      vertex 37.484 10.0993 0
    endloop
  endfacet
  facet normal -0.499999 -0.866026 0
    outer loop
      vertex 39.5048 11.266 0
      vertex 40.2445 10.8389 3
      vertex 39.5048 11.266 3
    endloop
  endfacet
  facet normal -0.499999 -0.866026 -0
    outer loop
      vertex 40.2445 10.8389 3
      vertex 39.5048 11.266 0
      vertex 40.2445 10.8389 0
    endloop
  endfacet
  facet normal -1 0 0
    outer loop
      vertex 40.6716 9.24515 0
      vertex 40.6716 10.0993 3
      vertex 40.6716 10.0993 0
    endloop
  endfacet
  facet normal -1 -0 0
    outer loop
      vertex 40.6716 10.0993 3
      vertex 40.6716 9.24515 0
      vertex 40.6716 9.24515 3
    endloop
  endfacet
  facet normal 0 -1 0
    outer loop
      vertex 38.6507 11.266 0
      vertex 39.5048 11.266 3
      vertex 38.6507 11.266 3
    endloop
  endfacet
  facet normal 0 -1 -0
    outer loop
      vertex 39.5048 11.266 3
      vertex 38.6507 11.266 0
      vertex 39.5048 11.266 0
    endloop
  endfacet
  facet normal -0.866025 -0.5 0
    outer loop
      vertex 40.6716 10.0993 0
      vertex 40.2445 10.8389 3
      vertex 40.2445 10.8389 0
    endloop
  endfacet
  facet normal -0.866025 -0.5 0
    outer loop
      vertex 40.2445 10.8389 3
      vertex 40.6716 10.0993 0
      vertex 40.6716 10.0993 3
    endloop
  endfacet
  facet normal -0.499999 0.866026 0
    outer loop
      vertex 40.2445 8.50548 0
      vertex 39.5048 8.07843 3
      vertex 40.2445 8.50548 3
    endloop
  endfacet
  facet normal -0.499999 0.866026 0
    outer loop
      vertex 39.5048 8.07843 3
      vertex 40.2445 8.50548 0
      vertex 39.5048 8.07843 0
    endloop
  endfacet
  facet normal 0 1 -0
    outer loop
      vertex 39.5048 8.07843 0
      vertex 38.6507 8.07843 3
      vertex 39.5048 8.07843 3
    endloop
  endfacet
  facet normal 0 1 0
    outer loop
      vertex 38.6507 8.07843 3
      vertex 39.5048 8.07843 0
      vertex 38.6507 8.07843 0
    endloop
  endfacet
  facet normal 1 -0 0
    outer loop
      vertex 37.484 9.24515 3
      vertex 37.484 10.0993 0
      vertex 37.484 10.0993 3
    endloop
  endfacet
  facet normal 1 0 0
    outer loop
      vertex 37.484 10.0993 0
      vertex 37.484 9.24515 3
      vertex 37.484 9.24515 0
    endloop
  endfacet
  facet normal 0.500001 0.866025 -0
    outer loop
      vertex 38.6507 8.07843 0
      vertex 37.9111 8.50548 3
      vertex 38.6507 8.07843 3
    endloop
  endfacet
  facet normal 0.500001 0.866025 0
    outer loop
      vertex 37.9111 8.50548 3
      vertex 38.6507 8.07843 0
      vertex 37.9111 8.50548 0
    endloop
  endfacet
  facet normal 0.866025 0.5 0
    outer loop
      vertex 37.9111 8.50548 3
      vertex 37.484 9.24515 0
      vertex 37.484 9.24515 3
    endloop
  endfacet
  facet normal 0.866025 0.5 0
    outer loop
      vertex 37.484 9.24515 0
      vertex 37.9111 8.50548 3
      vertex 37.9111 8.50548 0
    endloop
  endfacet
  facet normal 0 0 1
    outer loop
      vertex 13.3692 29.5525 3
      vertex 8.24515 38.484 3
      vertex 12.6263 27.266 3
    endloop
  endfacet
  facet normal 0 0 1
    outer loop
      vertex 12.375 24.875 3
      vertex 9.83893 10.8389 3
      vertex 10.266 10.0993 3
    endloop
  endfacet
  facet normal 0 0 1
    outer loop
      vertex 7.50548 38.9111 3
      vertex 12.6263 27.266 3
      vertex 8.24515 38.484 3
    endloop
  endfacet
  facet normal 0 0 1
    outer loop
      vertex 12.375 24.875 3
      vertex 9.09926 11.266 3
      vertex 9.83893 10.8389 3
    endloop
  endfacet
  facet normal 0 0 1
    outer loop
      vertex 12.6263 27.266 3
      vertex 7.50548 38.9111 3
      vertex 12.375 24.875 3
    endloop
  endfacet
  facet normal 0 0 1
    outer loop
      vertex 12.375 24.875 3
      vertex 8.24515 11.266 3
      vertex 9.09926 11.266 3
    endloop
  endfacet
  facet normal 0 0 1
    outer loop
      vertex 7.50548 10.8389 3
      vertex 12.375 24.875 3
      vertex 7.50548 38.9111 3
    endloop
  endfacet
  facet normal 0 0 1
    outer loop
      vertex 12.375 24.875 3
      vertex 7.50548 10.8389 3
      vertex 8.24515 11.266 3
    endloop
  endfacet
  facet normal 0 0 1
    outer loop
      vertex 7.07843 39.6507 3
      vertex 7.50548 10.8389 3
      vertex 7.50548 38.9111 3
    endloop
  endfacet
  facet normal 0 0 1
    outer loop
      vertex 7.50548 10.8389 3
      vertex 7.07843 39.6507 3
      vertex 7.07843 10.0993 3
    endloop
  endfacet
  facet normal -0 0 1
    outer loop
      vertex 40.2445 38.9111 3
      vertex 40.6716 10.0993 3
      vertex 40.6716 39.6507 3
    endloop
  endfacet
  facet normal 0 0 1
    outer loop
      vertex 40.2445 38.9111 3
      vertex 40.2445 10.8389 3
      vertex 40.6716 10.0993 3
    endloop
  endfacet
  facet normal 0 0 1
    outer loop
      vertex 35.1237 27.266 3
      vertex 40.2445 38.9111 3
      vertex 39.5048 38.484 3
    endloop
  endfacet
  facet normal 0 0 1
    outer loop
      vertex 40.2445 38.9111 3
      vertex 35.375 24.875 3
      vertex 40.2445 10.8389 3
    endloop
  endfacet
  facet normal 0 0 1
    outer loop
      vertex 34.3808 29.5525 3
      vertex 39.5048 38.484 3
      vertex 38.6507 38.484 3
    endloop
  endfacet
  facet normal -0 0 1
    outer loop
      vertex 35.1237 22.484 3
      vertex 40.2445 10.8389 3
      vertex 35.375 24.875 3
    endloop
  endfacet
  facet normal 0 0 1
    outer loop
      vertex 33.1787 31.6345 3
      vertex 38.6507 38.484 3
      vertex 37.9111 38.9111 3
    endloop
  endfacet
  facet normal 0 0 1
    outer loop
      vertex 40.2445 10.8389 3
      vertex 35.1237 22.484 3
      vertex 39.5048 11.266 3
    endloop
  endfacet
  facet normal 0 0 1
    outer loop
      vertex 31.57 33.4212 3
      vertex 37.9111 38.9111 3
      vertex 37.484 39.6507 3
    endloop
  endfacet
  facet normal -0 0 1
    outer loop
      vertex 34.3808 20.1975 3
      vertex 39.5048 11.266 3
      vertex 35.1237 22.484 3
    endloop
  endfacet
  facet normal 0 0 1
    outer loop
      vertex 40.6716 39.6507 3
      vertex 45 47 3
      vertex 40.6716 40.5048 3
    endloop
  endfacet
  facet normal 0 0 1
    outer loop
      vertex 45 47 3
      vertex 40.2445 41.2445 3
      vertex 40.6716 40.5048 3
    endloop
  endfacet
  facet normal 0 0 1
    outer loop
      vertex 45 47 3
      vertex 39.5048 41.6716 3
      vertex 40.2445 41.2445 3
    endloop
  endfacet
  facet normal 0 0 1
    outer loop
      vertex 45 47 3
      vertex 38.6507 41.6716 3
      vertex 39.5048 41.6716 3
    endloop
  endfacet
  facet normal 0 0 1
    outer loop
      vertex 45 47 3
      vertex 37.9111 41.2445 3
      vertex 38.6507 41.6716 3
    endloop
  endfacet
  facet normal 0 0 1
    outer loop
      vertex 29.625 34.8343 3
      vertex 37.484 39.6507 3
      vertex 37.484 40.5048 3
    endloop
  endfacet
  facet normal 0 0 1
    outer loop
      vertex 39.5048 11.266 3
      vertex 34.3808 20.1975 3
      vertex 38.6507 11.266 3
    endloop
  endfacet
  facet normal -0 0 1
    outer loop
      vertex 33.1787 18.1155 3
      vertex 38.6507 11.266 3
      vertex 34.3808 20.1975 3
    endloop
  endfacet
  facet normal 0 0 1
    outer loop
      vertex 40.2445 38.9111 3
      vertex 35.1237 27.266 3
      vertex 35.375 24.875 3
    endloop
  endfacet
  facet normal 0 0 1
    outer loop
      vertex 39.5048 38.484 3
      vertex 34.3808 29.5525 3
      vertex 35.1237 27.266 3
    endloop
  endfacet
  facet normal 0 0 1
    outer loop
      vertex 38.6507 38.484 3
      vertex 33.1787 31.6345 3
      vertex 34.3808 29.5525 3
    endloop
  endfacet
  facet normal 0 0 1
    outer loop
      vertex 37.9111 38.9111 3
      vertex 31.57 33.4212 3
      vertex 33.1787 31.6345 3
    endloop
  endfacet
  facet normal 0 0 1
    outer loop
      vertex 27.4287 35.8121 3
      vertex 37.484 40.5048 3
      vertex 37.9111 41.2445 3
    endloop
  endfacet
  facet normal 0 0 1
    outer loop
      vertex 37.484 39.6507 3
      vertex 29.625 34.8343 3
      vertex 31.57 33.4212 3
    endloop
  endfacet
  facet normal -0 0 1
    outer loop
      vertex 3 47 3
      vertex 37.9111 41.2445 3
      vertex 45 47 3
    endloop
  endfacet
  facet normal 0 0 1
    outer loop
      vertex 37.484 40.5048 3
      vertex 27.4287 35.8121 3
      vertex 29.625 34.8343 3
    endloop
  endfacet
  facet normal 0 0 1
    outer loop
      vertex 37.9111 41.2445 3
      vertex 25.0771 36.312 3
      vertex 27.4287 35.8121 3
    endloop
  endfacet
  facet normal 0 0 1
    outer loop
      vertex 37.9111 41.2445 3
      vertex 9.83893 41.2445 3
      vertex 25.0771 36.312 3
    endloop
  endfacet
  facet normal 0 0 1
    outer loop
      vertex 25.0771 36.312 3
      vertex 9.83893 41.2445 3
      vertex 22.6729 36.312 3
    endloop
  endfacet
  facet normal 0 0 1
    outer loop
      vertex 22.6729 36.312 3
      vertex 9.83893 41.2445 3
      vertex 20.3213 35.8121 3
    endloop
  endfacet
  facet normal -0 0 1
    outer loop
      vertex 9.09926 38.484 3
      vertex 14.5713 31.6345 3
      vertex 9.83893 38.9111 3
    endloop
  endfacet
  facet normal 0 0 1
    outer loop
      vertex 16.18 33.4212 3
      vertex 9.83893 38.9111 3
      vertex 14.5713 31.6345 3
    endloop
  endfacet
  facet normal -0 0 1
    outer loop
      vertex 9.83893 38.9111 3
      vertex 16.18 33.4212 3
      vertex 10.266 39.6507 3
    endloop
  endfacet
  facet normal 0 0 1
    outer loop
      vertex 18.125 34.8343 3
      vertex 10.266 39.6507 3
      vertex 16.18 33.4212 3
    endloop
  endfacet
  facet normal -0 0 1
    outer loop
      vertex 10.266 39.6507 3
      vertex 18.125 34.8343 3
      vertex 10.266 40.5048 3
    endloop
  endfacet
  facet normal -0 -0 1
    outer loop
      vertex 10.266 40.5048 3
      vertex 20.3213 35.8121 3
      vertex 9.83893 41.2445 3
    endloop
  endfacet
  facet normal 0 0 1
    outer loop
      vertex 20.3213 35.8121 3
      vertex 10.266 40.5048 3
      vertex 18.125 34.8343 3
    endloop
  endfacet
  facet normal 0 0 1
    outer loop
      vertex 37.9111 41.2445 3
      vertex 3 47 3
      vertex 9.83893 41.2445 3
    endloop
  endfacet
  facet normal 0 0 1
    outer loop
      vertex 9.83893 41.2445 3
      vertex 3 47 3
      vertex 9.09926 41.6716 3
    endloop
  endfacet
  facet normal 0 0 1
    outer loop
      vertex 3 47 3
      vertex 7.07843 39.6507 3
      vertex 7.07843 40.5048 3
    endloop
  endfacet
  facet normal 0 0 1
    outer loop
      vertex 3 3 3
      vertex 7.07843 39.6507 3
      vertex 3 47 3
    endloop
  endfacet
  facet normal 0 0 1
    outer loop
      vertex 7.07843 39.6507 3
      vertex 3 3 3
      vertex 7.07843 10.0993 3
    endloop
  endfacet
  facet normal 0 0 1
    outer loop
      vertex 7.50548 41.2445 3
      vertex 3 47 3
      vertex 7.07843 40.5048 3
    endloop
  endfacet
  facet normal 0 0 1
    outer loop
      vertex 8.24515 41.6716 3
      vertex 3 47 3
      vertex 7.50548 41.2445 3
    endloop
  endfacet
  facet normal 0 0 1
    outer loop
      vertex 9.09926 41.6716 3
      vertex 3 47 3
      vertex 8.24515 41.6716 3
    endloop
  endfacet
  facet normal 0 0 1
    outer loop
      vertex 45 47 3
      vertex 40.6716 39.6507 3
      vertex 45 3 3
    endloop
  endfacet
  facet normal -0 0 1
    outer loop
      vertex 40.6716 10.0993 3
      vertex 45 3 3
      vertex 40.6716 39.6507 3
    endloop
  endfacet
  facet normal -0 0 1
    outer loop
      vertex 40.6716 9.24515 3
      vertex 45 3 3
      vertex 40.6716 10.0993 3
    endloop
  endfacet
  facet normal -0 0 1
    outer loop
      vertex 40.2445 8.50548 3
      vertex 45 3 3
      vertex 40.6716 9.24515 3
    endloop
  endfacet
  facet normal -0 0 1
    outer loop
      vertex 39.5048 8.07843 3
      vertex 45 3 3
      vertex 40.2445 8.50548 3
    endloop
  endfacet
  facet normal -0 0 1
    outer loop
      vertex 38.6507 8.07843 3
      vertex 45 3 3
      vertex 39.5048 8.07843 3
    endloop
  endfacet
  facet normal 0 0 1
    outer loop
      vertex 37.9111 8.50548 3
      vertex 45 3 3
      vertex 38.6507 8.07843 3
    endloop
  endfacet
  facet normal 0 0 1
    outer loop
      vertex 38.6507 11.266 3
      vertex 33.1787 18.1155 3
      vertex 37.9111 10.8389 3
    endloop
  endfacet
  facet normal -0 0 1
    outer loop
      vertex 31.57 16.3288 3
      vertex 37.9111 10.8389 3
      vertex 33.1787 18.1155 3
    endloop
  endfacet
  facet normal 0 0 1
    outer loop
      vertex 37.9111 10.8389 3
      vertex 31.57 16.3288 3
      vertex 37.484 10.0993 3
    endloop
  endfacet
  facet normal -0 0 1
    outer loop
      vertex 29.625 14.9157 3
      vertex 37.484 10.0993 3
      vertex 31.57 16.3288 3
    endloop
  endfacet
  facet normal 0 0 1
    outer loop
      vertex 37.484 10.0993 3
      vertex 29.625 14.9157 3
      vertex 37.484 9.24515 3
    endloop
  endfacet
  facet normal -0 0 1
    outer loop
      vertex 27.4287 13.9379 3
      vertex 37.484 9.24515 3
      vertex 29.625 14.9157 3
    endloop
  endfacet
  facet normal 0 0 1
    outer loop
      vertex 37.484 9.24515 3
      vertex 27.4287 13.9379 3
      vertex 37.9111 8.50548 3
    endloop
  endfacet
  facet normal -0 0 1
    outer loop
      vertex 25.0771 13.438 3
      vertex 37.9111 8.50548 3
      vertex 27.4287 13.9379 3
    endloop
  endfacet
  facet normal 0 0 1
    outer loop
      vertex 9.83893 8.50548 3
      vertex 37.9111 8.50548 3
      vertex 25.0771 13.438 3
    endloop
  endfacet
  facet normal 0 0 1
    outer loop
      vertex 9.83893 8.50548 3
      vertex 25.0771 13.438 3
      vertex 22.6729 13.438 3
    endloop
  endfacet
  facet normal 0 0 1
    outer loop
      vertex 9.83893 8.50548 3
      vertex 22.6729 13.438 3
      vertex 20.3213 13.9379 3
    endloop
  endfacet
  facet normal 0 0 1
    outer loop
      vertex 14.5713 31.6345 3
      vertex 9.09926 38.484 3
      vertex 13.3692 29.5525 3
    endloop
  endfacet
  facet normal -0 0 1
    outer loop
      vertex 8.24515 38.484 3
      vertex 13.3692 29.5525 3
      vertex 9.09926 38.484 3
    endloop
  endfacet
  facet normal 0 0 1
    outer loop
      vertex 12.375 24.875 3
      vertex 10.266 10.0993 3
      vertex 12.6263 22.484 3
    endloop
  endfacet
  facet normal 0 0 1
    outer loop
      vertex 10.266 10.0993 3
      vertex 13.3692 20.1975 3
      vertex 12.6263 22.484 3
    endloop
  endfacet
  facet normal 0 0 1
    outer loop
      vertex 10.266 10.0993 3
      vertex 14.5713 18.1155 3
      vertex 13.3692 20.1975 3
    endloop
  endfacet
  facet normal 0 0 1
    outer loop
      vertex 10.266 10.0993 3
      vertex 16.18 16.3288 3
      vertex 14.5713 18.1155 3
    endloop
  endfacet
  facet normal 0 0 1
    outer loop
      vertex 10.266 10.0993 3
      vertex 18.125 14.9157 3
      vertex 16.18 16.3288 3
    endloop
  endfacet
  facet normal 0 0 1
    outer loop
      vertex 10.266 9.24515 3
      vertex 18.125 14.9157 3
      vertex 10.266 10.0993 3
    endloop
  endfacet
  facet normal 0 0 1
    outer loop
      vertex 18.125 14.9157 3
      vertex 10.266 9.24515 3
      vertex 20.3213 13.9379 3
    endloop
  endfacet
  facet normal 0 0 1
    outer loop
      vertex 9.83893 8.50548 3
      vertex 20.3213 13.9379 3
      vertex 10.266 9.24515 3
    endloop
  endfacet
  facet normal 0 0 1
    outer loop
      vertex 3 3 3
      vertex 37.9111 8.50548 3
      vertex 9.83893 8.50548 3
    endloop
  endfacet
  facet normal 0 0 1
    outer loop
      vertex 3 3 3
      vertex 9.83893 8.50548 3
      vertex 9.09926 8.07843 3
    endloop
  endfacet
  facet normal 0 0 1
    outer loop
      vertex 3 3 3
      vertex 9.09926 8.07843 3
      vertex 8.24515 8.07843 3
    endloop
  endfacet
  facet normal 0 0 1
    outer loop
      vertex 37.9111 8.50548 3
      vertex 3 3 3
      vertex 45 3 3
    endloop
  endfacet
  facet normal 0 0 1
    outer loop
      vertex 7.50548 8.50548 3
      vertex 3 3 3
      vertex 8.24515 8.07843 3
    endloop
  endfacet
  facet normal 0 0 1
    outer loop
      vertex 7.07843 9.24515 3
      vertex 3 3 3
      vertex 7.50548 8.50548 3
    endloop
  endfacet
  facet normal 0 0 1
    outer loop
      vertex 7.07843 10.0993 3
      vertex 3 3 3
      vertex 7.07843 9.24515 3
    endloop
  endfacet
  facet normal -0.866026 -0.5 0
    outer loop
      vertex 34.3808 29.5525 0
      vertex 33.1787 31.6345 3
      vertex 33.1787 31.6345 0
    endloop
  endfacet
  facet normal -0.866026 -0.5 0
    outer loop
      vertex 33.1787 31.6345 3
      vertex 34.3808 29.5525 0
      vertex 34.3808 29.5525 3
    endloop
  endfacet
  facet normal -0.951057 -0.309017 0
    outer loop
      vertex 35.1237 27.266 0
      vertex 34.3808 29.5525 3
      vertex 34.3808 29.5525 0
    endloop
  endfacet
  facet normal -0.951057 -0.309017 0
    outer loop
      vertex 34.3808 29.5525 3
      vertex 35.1237 27.266 0
      vertex 35.1237 27.266 3
    endloop
  endfacet
  facet normal -0.406737 -0.913545 0
    outer loop
      vertex 27.4287 35.8121 0
      vertex 29.625 34.8343 3
      vertex 27.4287 35.8121 3
    endloop
  endfacet
  facet normal -0.406737 -0.913545 -0
    outer loop
      vertex 29.625 34.8343 3
      vertex 27.4287 35.8121 0
      vertex 29.625 34.8343 0
    endloop
  endfacet
  facet normal 0.207911 -0.978148 0
    outer loop
      vertex 20.3213 35.8121 0
      vertex 22.6729 36.312 3
      vertex 20.3213 35.8121 3
    endloop
  endfacet
  facet normal 0.207911 -0.978148 0
    outer loop
      vertex 22.6729 36.312 3
      vertex 20.3213 35.8121 0
      vertex 22.6729 36.312 0
    endloop
  endfacet
  facet normal 0.866025 -0.5 0
    outer loop
      vertex 13.3692 29.5525 3
      vertex 14.5713 31.6345 0
      vertex 14.5713 31.6345 3
    endloop
  endfacet
  facet normal 0.866025 -0.5 0
    outer loop
      vertex 14.5713 31.6345 0
      vertex 13.3692 29.5525 3
      vertex 13.3692 29.5525 0
    endloop
  endfacet
  facet normal -0.994522 0.104529 0
    outer loop
      vertex 35.1237 22.484 0
      vertex 35.375 24.875 3
      vertex 35.375 24.875 0
    endloop
  endfacet
  facet normal -0.994522 0.104529 0
    outer loop
      vertex 35.375 24.875 3
      vertex 35.1237 22.484 0
      vertex 35.1237 22.484 3
    endloop
  endfacet
  facet normal -0.207912 0.978148 0
    outer loop
      vertex 27.4287 13.9379 0
      vertex 25.0771 13.438 3
      vertex 27.4287 13.9379 3
    endloop
  endfacet
  facet normal -0.207912 0.978148 0
    outer loop
      vertex 25.0771 13.438 3
      vertex 27.4287 13.9379 0
      vertex 25.0771 13.438 0
    endloop
  endfacet
  facet normal -0.743145 -0.66913 0
    outer loop
      vertex 33.1787 31.6345 0
      vertex 31.57 33.4212 3
      vertex 31.57 33.4212 0
    endloop
  endfacet
  facet normal -0.743145 -0.66913 0
    outer loop
      vertex 31.57 33.4212 3
      vertex 33.1787 31.6345 0
      vertex 33.1787 31.6345 3
    endloop
  endfacet
  facet normal 0 -1 0
    outer loop
      vertex 22.6729 36.312 0
      vertex 25.0771 36.312 3
      vertex 22.6729 36.312 3
    endloop
  endfacet
  facet normal 0 -1 -0
    outer loop
      vertex 25.0771 36.312 3
      vertex 22.6729 36.312 0
      vertex 25.0771 36.312 0
    endloop
  endfacet
  facet normal -0.587785 -0.809017 0
    outer loop
      vertex 29.625 34.8343 0
      vertex 31.57 33.4212 3
      vertex 29.625 34.8343 3
    endloop
  endfacet
  facet normal -0.587785 -0.809017 -0
    outer loop
      vertex 31.57 33.4212 3
      vertex 29.625 34.8343 0
      vertex 31.57 33.4212 0
    endloop
  endfacet
  facet normal 0.994522 -0.104529 0
    outer loop
      vertex 12.375 24.875 3
      vertex 12.6263 27.266 0
      vertex 12.6263 27.266 3
    endloop
  endfacet
  facet normal 0.994522 -0.104529 0
    outer loop
      vertex 12.6263 27.266 0
      vertex 12.375 24.875 3
      vertex 12.375 24.875 0
    endloop
  endfacet
  facet normal 0.743145 -0.66913 0
    outer loop
      vertex 14.5713 31.6345 3
      vertex 16.18 33.4212 0
      vertex 16.18 33.4212 3
    endloop
  endfacet
  facet normal 0.743145 -0.66913 0
    outer loop
      vertex 16.18 33.4212 0
      vertex 14.5713 31.6345 3
      vertex 14.5713 31.6345 0
    endloop
  endfacet
  facet normal 0.406737 -0.913545 0
    outer loop
      vertex 18.125 34.8343 0
      vertex 20.3213 35.8121 3
      vertex 18.125 34.8343 3
    endloop
  endfacet
  facet normal 0.406737 -0.913545 0
    outer loop
      vertex 20.3213 35.8121 3
      vertex 18.125 34.8343 0
      vertex 20.3213 35.8121 0
    endloop
  endfacet
  facet normal 0.587785 -0.809017 0
    outer loop
      vertex 16.18 33.4212 0
      vertex 18.125 34.8343 3
      vertex 16.18 33.4212 3
    endloop
  endfacet
  facet normal 0.587785 -0.809017 0
    outer loop
      vertex 18.125 34.8343 3
      vertex 16.18 33.4212 0
      vertex 18.125 34.8343 0
    endloop
  endfacet
  facet normal -0.994522 -0.104529 0
    outer loop
      vertex 35.375 24.875 0
      vertex 35.1237 27.266 3
      vertex 35.1237 27.266 0
    endloop
  endfacet
  facet normal -0.994522 -0.104529 0
    outer loop
      vertex 35.1237 27.266 3
      vertex 35.375 24.875 0
      vertex 35.375 24.875 3
    endloop
  endfacet
  facet normal -0.587785 0.809017 0
    outer loop
      vertex 31.57 16.3288 0
      vertex 29.625 14.9157 3
      vertex 31.57 16.3288 3
    endloop
  endfacet
  facet normal -0.587785 0.809017 0
    outer loop
      vertex 29.625 14.9157 3
      vertex 31.57 16.3288 0
      vertex 29.625 14.9157 0
    endloop
  endfacet
  facet normal -0.951057 0.309017 0
    outer loop
      vertex 34.3808 20.1975 0
      vertex 35.1237 22.484 3
      vertex 35.1237 22.484 0
    endloop
  endfacet
  facet normal -0.951057 0.309017 0
    outer loop
      vertex 35.1237 22.484 3
      vertex 34.3808 20.1975 0
      vertex 34.3808 20.1975 3
    endloop
  endfacet
  facet normal 0.587785 0.809017 -0
    outer loop
      vertex 18.125 14.9157 0
      vertex 16.18 16.3288 3
      vertex 18.125 14.9157 3
    endloop
  endfacet
  facet normal 0.587785 0.809017 0
    outer loop
      vertex 16.18 16.3288 3
      vertex 18.125 14.9157 0
      vertex 16.18 16.3288 0
    endloop
  endfacet
  facet normal 0.866025 0.5 0
    outer loop
      vertex 14.5713 18.1155 3
      vertex 13.3692 20.1975 0
      vertex 13.3692 20.1975 3
    endloop
  endfacet
  facet normal 0.866025 0.5 0
    outer loop
      vertex 13.3692 20.1975 0
      vertex 14.5713 18.1155 3
      vertex 14.5713 18.1155 0
    endloop
  endfacet
  facet normal -0.207911 -0.978148 0
    outer loop
      vertex 25.0771 36.312 0
      vertex 27.4287 35.8121 3
      vertex 25.0771 36.312 3
    endloop
  endfacet
  facet normal -0.207911 -0.978148 -0
    outer loop
      vertex 27.4287 35.8121 3
      vertex 25.0771 36.312 0
      vertex 27.4287 35.8121 0
    endloop
  endfacet
  facet normal 0.951057 -0.309017 0
    outer loop
      vertex 12.6263 27.266 3
      vertex 13.3692 29.5525 0
      vertex 13.3692 29.5525 3
    endloop
  endfacet
  facet normal 0.951057 -0.309017 0
    outer loop
      vertex 13.3692 29.5525 0
      vertex 12.6263 27.266 3
      vertex 12.6263 27.266 0
    endloop
  endfacet
  facet normal 0.994522 0.104529 0
    outer loop
      vertex 12.6263 22.484 3
      vertex 12.375 24.875 0
      vertex 12.375 24.875 3
    endloop
  endfacet
  facet normal 0.994522 0.104529 0
    outer loop
      vertex 12.375 24.875 0
      vertex 12.6263 22.484 3
      vertex 12.6263 22.484 0
    endloop
  endfacet
  facet normal 0.743145 0.66913 0
    outer loop
      vertex 16.18 16.3288 3
      vertex 14.5713 18.1155 0
      vertex 14.5713 18.1155 3
    endloop
  endfacet
  facet normal 0.743145 0.66913 0
    outer loop
      vertex 14.5713 18.1155 0
      vertex 16.18 16.3288 3
      vertex 16.18 16.3288 0
    endloop
  endfacet
  facet normal -0.406737 0.913545 0
    outer loop
      vertex 29.625 14.9157 0
      vertex 27.4287 13.9379 3
      vertex 29.625 14.9157 3
    endloop
  endfacet
  facet normal -0.406737 0.913545 0
    outer loop
      vertex 27.4287 13.9379 3
      vertex 29.625 14.9157 0
      vertex 27.4287 13.9379 0
    endloop
  endfacet
  facet normal -0.743145 0.66913 0
    outer loop
      vertex 31.57 16.3288 0
      vertex 33.1787 18.1155 3
      vertex 33.1787 18.1155 0
    endloop
  endfacet
  facet normal -0.743145 0.66913 0
    outer loop
      vertex 33.1787 18.1155 3
      vertex 31.57 16.3288 0
      vertex 31.57 16.3288 3
    endloop
  endfacet
  facet normal -0.866026 0.5 0
    outer loop
      vertex 33.1787 18.1155 0
      vertex 34.3808 20.1975 3
      vertex 34.3808 20.1975 0
    endloop
  endfacet
  facet normal -0.866026 0.5 0
    outer loop
      vertex 34.3808 20.1975 3
      vertex 33.1787 18.1155 0
      vertex 33.1787 18.1155 3
    endloop
  endfacet
  facet normal 0.406737 0.913545 -0
    outer loop
      vertex 20.3213 13.9379 0
      vertex 18.125 14.9157 3
      vertex 20.3213 13.9379 3
    endloop
  endfacet
  facet normal 0.406737 0.913545 0
    outer loop
      vertex 18.125 14.9157 3
      vertex 20.3213 13.9379 0
      vertex 18.125 14.9157 0
    endloop
  endfacet
  facet normal 0 1 -0
    outer loop
      vertex 25.0771 13.438 0
      vertex 22.6729 13.438 3
      vertex 25.0771 13.438 3
    endloop
  endfacet
  facet normal 0 1 0
    outer loop
      vertex 22.6729 13.438 3
      vertex 25.0771 13.438 0
      vertex 22.6729 13.438 0
    endloop
  endfacet
  facet normal 0.951057 0.309017 0
    outer loop
      vertex 13.3692 20.1975 3
      vertex 12.6263 22.484 0
      vertex 12.6263 22.484 3
    endloop
  endfacet
  facet normal 0.951057 0.309017 0
    outer loop
      vertex 12.6263 22.484 0
      vertex 13.3692 20.1975 3
      vertex 13.3692 20.1975 0
    endloop
  endfacet
  facet normal 0.207912 0.978148 -0
    outer loop
      vertex 22.6729 13.438 0
      vertex 20.3213 13.9379 3
      vertex 22.6729 13.438 3
    endloop
  endfacet
  facet normal 0.207912 0.978148 0
    outer loop
      vertex 20.3213 13.9379 3
      vertex 22.6729 13.438 0
      vertex 20.3213 13.9379 0
    endloop
  endfacet
  facet normal -0 0 1
    outer loop
      vertex 0 3 30
      vertex 48 0 30
      vertex 48 3 30
    endloop
  endfacet
  facet normal 0 0 1
    outer loop
      vertex 48 0 30
      vertex 0 3 30
      vertex 0 0 30
    endloop
  endfacet
  facet normal -0 0 1
    outer loop
      vertex 0 -8 30
      vertex 48 -11 30
      vertex 48 -8 30
    endloop
  endfacet
  facet normal 0 0 1
    outer loop
      vertex 48 -11 30
      vertex 0 -8 30
      vertex 0 -11 30
    endloop
  endfacet
  facet normal 0 1 -0
    outer loop
      vertex 48 -8 3
      vertex 0 -8 30
      vertex 48 -8 30
    endloop
  endfacet
  facet normal 0 1 0
    outer loop
      vertex 0 -8 30
      vertex 48 -8 3
      vertex 0 -8 3
    endloop
  endfacet
  facet normal 0 -1 0
    outer loop
      vertex 0 -11 0
      vertex 48 -11 30
      vertex 0 -11 30
    endloop
  endfacet
  facet normal 0 -1 -0
    outer loop
      vertex 48 -11 30
      vertex 0 -11 0
      vertex 48 -11 0
    endloop
  endfacet
  facet normal -0 0 1
    outer loop
      vertex 0 0 3
      vertex 48 -8 3
      vertex 48 0 3
    endloop
  endfacet
  facet normal 0 0 1
    outer loop
      vertex 48 -8 3
      vertex 0 0 3
      vertex 0 -8 3
    endloop
  endfacet
endsolid OpenSCAD_Model
